<svg xmlns="http://www.w3.org/2000/svg" xmlns:xlink="http://www.w3.org/1999/xlink" width="17.848" height="17.85" viewBox="0 0 17.848 17.85">
  <defs>
    <clipPath id="clip-path">
      <rect id="Rectangle_297" data-name="Rectangle 297" width="17.848" height="17.85" fill="#b1bccb"/>
    </clipPath>
  </defs>
  <g id="Group_2724" data-name="Group 2724" clip-path="url(#clip-path)">
    <path id="Path_4232" data-name="Path 4232" d="M5.26,17.848a5.248,5.248,0,0,1-3.74-1.4A5.173,5.173,0,0,1,.01,12.6V5.225A4.925,4.925,0,0,1,5.225.01h7.407a5.115,5.115,0,0,1,3.775,1.474,5.154,5.154,0,0,1,1.438,3.74v7.407a5.148,5.148,0,0,1-1.474,3.811,5.316,5.316,0,0,1-3.775,1.4Z" transform="translate(0 0)" fill="#b1bccb"/>
    <path id="Path_4233" data-name="Path 4233" d="M30.634,35.02a4.3,4.3,0,1,1,0,.03v-.031Z" transform="translate(-26.309 -26.125)" fill="#faf7f5"/>
    <path id="Path_4234" data-name="Path 4234" d="M42.365,45.085a2.948,2.948,0,1,0,5.9,0,3.086,3.086,0,0,0-1.5-2.568,2.646,2.646,0,0,0-1.44-.379,2.962,2.962,0,0,0-2.953,2.947Z" transform="translate(-36.386 -36.19)" fill="#b3bcc9"/>
    <path id="Path_4235" data-name="Path 4235" d="M89.755,23.281A1.043,1.043,0,1,1,90.8,24.324a1.043,1.043,0,0,1-1.043-1.043Z" transform="translate(-77.088 -19.1)" fill="#faf7f5"/>
  </g>
</svg>
