<svg xmlns="http://www.w3.org/2000/svg" width="16.35" height="16.349" viewBox="0 0 16.35 16.349">
  <path id="Icon_awesome-linkedin-in" data-name="Icon awesome-linkedin-in" d="M3.66,16.35H.27V5.434H3.66Zm-1.7-12.4A1.972,1.972,0,1,1,3.926,1.964,1.98,1.98,0,0,1,1.963,3.945Zm14.383,12.4H12.964V11.036c0-1.266-.026-2.89-1.762-2.89-1.762,0-2.032,1.376-2.032,2.8v5.4H5.783V5.434H9.034V6.923h.047a3.562,3.562,0,0,1,3.207-1.763c3.43,0,4.061,2.259,4.061,5.193v6Z" transform="translate(0 -0.001)" fill="#b1bccb"/>
</svg>
