<svg xmlns="http://www.w3.org/2000/svg" width="104.777" height="90.202" viewBox="0 0 104.777 90.202">
  <g id="bxs-quote-left" transform="translate(14.008 12)">
    <g id="Path_7770" data-name="Path 7770" transform="translate(0)" fill="#58758e">
      <path d="M 67.49423980712891 70.20236206054688 L 45.6683464050293 70.20236206054688 C 42.37954711914062 70.20236206054688 39.40511322021484 68.8311767578125 37.28657150268555 66.63032531738281 C 34.63131713867188 68.85897827148438 31.20982551574707 70.20236206054688 27.48011016845703 70.20236206054688 L 5.654236793518066 70.20236206054688 C -0.76278156042099 70.20236206054688 -5.983417987823486 64.98171997070312 -5.983417987823486 58.56470489501953 L -5.983417987823486 40.37646865844727 L -5.972508907318115 29.74995994567871 C -6.057345390319824 29.03517723083496 -6.769272327423096 16.74283218383789 2.284472942352295 6.916613578796387 C 8.967272758483887 -0.328222781419754 18.66716384887695 -4.000004768371582 31.11776351928711 -4.000004768371582 L 34.75541687011719 -4.000004768371582 L 42.75541687011719 -4.000004768371582 L 42.75541687011719 3.999995470046997 L 42.75541687011719 6.431801795959473 C 49.42036056518555 -0.4916388988494873 58.96244430541992 -4.000004768371582 71.13187408447266 -4.000004768371582 L 74.76953125 -4.000004768371582 L 82.76953125 -4.000004768371582 L 82.76953125 3.999995470046997 L 82.76953125 14.2545223236084 L 82.76953125 20.81132316589355 L 79.56616973876953 21.45281219482422 C 81.55056762695312 23.54092979431152 82.76953125 26.36232948303223 82.76953125 29.46352195739746 L 82.76953125 54.92705154418945 C 82.76953125 63.34988784790039 75.91705322265625 70.20236206054688 67.49423980712891 70.20236206054688 Z" stroke="none"/>
      <path d="M 31.11776351928711 4.000003814697266 C 20.99419021606445 4.000003814697266 13.27146530151367 6.80462646484375 8.167839050292969 12.33747863769531 C 1.303611755371094 19.78740310668945 1.994766235351562 29.35440063476562 2.027488708496094 29.7581787109375 L 2.016586303710938 58.56470108032227 C 2.016586303710938 60.57372665405273 3.645210266113281 62.20235061645508 5.65423583984375 62.20235061645508 L 27.4801139831543 62.20235061645508 C 31.49243927001953 62.20235061645508 34.75541305541992 58.93937683105469 34.75541305541992 54.92705154418945 L 34.75541305541992 29.46352767944336 C 34.75541305541992 27.45450210571289 33.12678909301758 25.82587814331055 31.11776351928711 25.82587814331055 L 19.93198776245117 25.82587814331055 C 20.0082893371582 23.99995040893555 20.55728912353516 22.22507858276367 21.52528762817383 20.67497634887695 C 23.38048934936523 17.79760360717773 26.84716415405273 15.8369026184082 31.83073806762695 14.84017562866211 L 34.75541305541992 14.2545280456543 L 34.75541305541992 4.000003814697266 L 31.11776351928711 4.000003814697266 M 71.13186645507812 4.000003814697266 C 61.00831604003906 4.000003814697266 53.28559112548828 6.80462646484375 48.18196105957031 12.33747863769531 C 41.31771469116211 19.78740310668945 42.00888824462891 29.35440063476562 42.0416145324707 29.7581787109375 L 42.03071212768555 58.56470108032227 C 42.03071212768555 60.57372665405273 43.65933990478516 62.20235061645508 45.66833877563477 62.20235061645508 L 67.49423980712891 62.20235061645508 C 71.50656127929688 62.20235061645508 74.76951599121094 58.93937683105469 74.76951599121094 54.92705154418945 L 74.76951599121094 29.46352767944336 C 74.76951599121094 27.45450210571289 73.14089202880859 25.82587814331055 71.13186645507812 25.82587814331055 L 59.94611358642578 25.82587814331055 C 60.02238845825195 23.99995040893555 60.57138824462891 22.22507858276367 61.53939056396484 20.67497634887695 C 63.39461517333984 17.79760360717773 66.86126708984375 15.8369026184082 71.84486389160156 14.84017562866211 L 74.76951599121094 14.2545280456543 L 74.76951599121094 4.000003814697266 L 71.13186645507812 4.000003814697266 M 31.11776351928711 -12 L 50.75541305541992 -12 L 50.75541305541992 -8.320938110351562 C 56.14563751220703 -10.51538848876953 62.851806640625 -12 71.13186645507812 -12 L 90.76951599121094 -12 L 90.76951599121094 27.36822891235352 L 90.66082763671875 27.38999176025391 C 90.73273468017578 28.07180786132812 90.76951599121094 28.76296997070312 90.76951599121094 29.46352767944336 L 90.76951599121094 54.92705154418945 C 90.76951599121094 67.76110076904297 80.32826232910156 78.20235443115234 67.49423980712891 78.20235443115234 L 45.66833877563477 78.20235443115234 C 42.55152130126953 78.20235443115234 39.60117721557617 77.47206878662109 36.9808349609375 76.17424011230469 C 34.07815933227539 77.47737884521484 30.86252593994141 78.20235443115234 27.4801139831543 78.20235443115234 L 5.65423583984375 78.20235443115234 C -5.173988342285156 78.20235443115234 -13.98341369628906 69.39292907714844 -13.98341369628906 58.56470108032227 L -13.97299194335938 30.20956420898438 C -14.16841888427734 26.02005767822266 -13.8785400390625 12.65247344970703 -3.598960876464844 1.495780944824219 C 2.083442687988281 -4.66455078125 12.71311569213867 -12 31.11776351928711 -12 Z" stroke="none" fill="#0d4b77"/>
    </g>
  </g>
</svg>
