<svg id="Component_39_8" data-name="Component 39 – 8" xmlns="http://www.w3.org/2000/svg" width="84" height="84" viewBox="0 0 84 84">
  <g id="Ellipse_15" data-name="Ellipse 15" transform="translate(84 84) rotate(180)" fill="#0b436b" stroke="#b1bccb" stroke-width="2">
    <circle cx="42" cy="42" r="42" stroke="none"/>
    <circle cx="42" cy="42" r="41" fill="none"/>
  </g>
  <g id="bxs-up-arrow" transform="translate(49.979 33.5) rotate(90)">
    <g id="Path_7758" data-name="Path 7758" transform="translate(0)" fill="none">
      <path d="M.8,11.979H15.2a.8.8,0,0,0,.658-1.255L8.659.323a.831.831,0,0,0-1.316,0l-7.2,10.4A.8.8,0,0,0,.8,11.979Z" stroke="none"/>
      <path d="M 0.7992439270019531 11.97894191741943 C 0.7996618151664734 11.97894191741943 0.8000673651695251 11.97894096374512 0.8004853129386902 11.97894096374512 L 15.20088577270508 11.97894096374512 C 15.49801540374756 11.9780101776123 15.77024555206299 11.81281089782715 15.90826511383057 11.54968070983887 C 16.04628562927246 11.28656101226807 16.02744483947754 10.9686803817749 15.8593053817749 10.72370052337646 L 8.65910530090332 0.3234105408191681 C 8.36069393157959 -0.107800267636776 7.642274379730225 -0.1077986359596252 7.34306526184082 0.3234105408191681 L 0.1428653001785278 10.72370052337646 C -0.02701469883322716 10.96821022033691 -0.04689469933509827 11.28688049316406 0.09127530455589294 11.55061054229736 C 0.2292513400316238 11.8139705657959 0.5020005702972412 11.97893714904785 0.7992439270019531 11.97894191741943 M 15.20401573181152 13.97894096374512 L 0.8004853129386902 13.97894096374512 C -0.245394691824913 13.97894096374512 -1.195504665374756 13.4041109085083 -1.680304646492004 12.47878074645996 C -2.165984630584717 11.55175018310547 -2.096744775772095 10.44199085235596 -1.499614715576172 9.582540512084961 L 5.698685169219971 -0.8150094747543335 C 6.214035511016846 -1.557679414749146 7.074395179748535 -1.999999403953552 8.001385688781738 -1.999999403953552 C 8.929405212402344 -1.999999403953552 9.790084838867188 -1.556889414787292 10.3037052154541 -0.8146894574165344 L 17.50827598571777 9.591940879821777 C 18.09751510620117 10.45046043395996 18.1630859375 11.55661010742188 17.67938613891602 12.47873020172119 C 17.19572448730469 13.4008207321167 16.24840545654297 13.97567081451416 15.20714569091797 13.97893047332764 L 15.20401573181152 13.97894096374512 Z" stroke="none" fill="#fff"/>
    </g>
  </g>
</svg>
