<svg id="Icon_ionic-logo-youtube" data-name="Icon ionic-logo-youtube" xmlns="http://www.w3.org/2000/svg" width="23.705" height="17.782" viewBox="0 0 23.705 17.782">
  <path id="Icon_ionic-logo-youtube-2" data-name="Icon ionic-logo-youtube" d="M23.551,8.427a3.6,3.6,0,0,0-3.427-3.76c-2.565-.12-5.182-.167-7.853-.167h-.833c-2.667,0-5.288.046-7.853.167A3.607,3.607,0,0,0,.162,8.436C.046,10.084,0,11.733,0,13.381s.046,3.3.157,4.95a3.612,3.612,0,0,0,3.422,3.774c2.695.125,5.459.181,8.27.176s5.571-.046,8.27-.176a3.612,3.612,0,0,0,3.427-3.774c.111-1.653.162-3.3.157-4.955S23.662,10.08,23.551,8.427Zm-13.966,9.5v-9.1L16.3,13.372Z" transform="translate(0 -4.5)" fill="#b1bccb"/>
</svg>
