<svg xmlns="http://www.w3.org/2000/svg" xmlns:xlink="http://www.w3.org/1999/xlink" width="339.139" height="51.29" viewBox="0 0 339.139 51.29">
  <defs>
    <clipPath id="clip-path">
      <rect id="Rectangle_1865" data-name="Rectangle 1865" width="339.139" height="51.29" fill="#043844"/>
    </clipPath>
  </defs>
  <g id="Group_2884" data-name="Group 2884" transform="translate(4 39.499)">
    <g id="Group_2789" data-name="Group 2789" transform="translate(-4 -39.499)" clip-path="url(#clip-path)">
      <path id="Path_4236" data-name="Path 4236" d="M115.714,30.707l-.6.464c-.37-.37-.556-.464-.88-.464-.37,0-.787.186-1.666.788-4.91,3.287-8.1,4.3-13.291,4.3-5.14,0-9.261-1.249-12.27-3.7A15.648,15.648,0,0,1,81.586,20.01a15.716,15.716,0,0,1,5.6-12.271C90.338,5.052,94.182,3.8,99.044,3.8c3.982,0,7.455.88,12.225,3.009,1.157.51,1.25.556,1.62.556a1.263,1.263,0,0,0,.926-.556l.648.371-3.52,6.576-.648-.371a2.854,2.854,0,0,0,.139-.741c0-.833-.787-1.619-2.315-2.408a20.084,20.084,0,0,0-8.752-2.4,13.639,13.639,0,0,0-9.122,3.375,11.727,11.727,0,0,0-4.027,8.938c0,7.131,5.369,11.617,13.381,11.617a14.494,14.494,0,0,0,9.308-3.144c1.25-.972,1.806-1.667,1.806-2.223a1.245,1.245,0,0,0-.371-.833l.6-.417Z" transform="translate(-19.992 -0.932)" fill="#0d4b77"/>
      <path id="Path_4237" data-name="Path 4237" d="M191.482,12.787l-.6-.371a4.52,4.52,0,0,0,.047-.695c0-.786-.463-1.3-1.945-2.038a17.372,17.372,0,0,0-7.78-1.849c-5.7,0-9.632,2.266-9.632,5.322a2.556,2.556,0,0,0,1.528,2.408c.926.463,1.251.556,6.53,1.112l3.982.417c3.982.417,6.3.926,8.382,1.945a7.646,7.646,0,0,1,4.17,7.131,8.446,8.446,0,0,1-4.078,7.409c-2.5,1.528-5.743,2.223-10.327,2.223a25.569,25.569,0,0,1-13.1-3.335,5.81,5.81,0,0,0-1.992-.879c-.277,0-.51.137-1.2.6l-.6-.37,4.214-6.529.6.417-.047.323a5.437,5.437,0,0,0-.093.649c0,.556.51,1.2,1.482,1.9a17.029,17.029,0,0,0,10.234,3.187c6.3,0,10.279-2.167,10.279-5.455a3.518,3.518,0,0,0-2.223-3.2c-1.25-.6-2.593-1.073-7.038-1.491l-3.982-.415c-4.167-.418-6.345-.733-8.1-1.752a6.6,6.6,0,0,1-3.242-5.927c0-5.927,5.372-9.724,13.8-9.724a24.882,24.882,0,0,1,9.91,1.944,7.911,7.911,0,0,0,2.454.741c.463,0,.649-.093,1.157-.649l.649.325Z" transform="translate(-40.396 -0.932)" fill="#0d4b77"/>
      <path id="Path_4238" data-name="Path 4238" d="M220.855,21.3V33.065c.046,1.018.37,1.342,1.435,1.621v.74h-7.5v-.74c1.065-.279,1.343-.6,1.436-1.621V6.9c-.093-1.018-.371-1.3-1.436-1.619V4.54h7.5v.741c-1.065.277-1.389.6-1.435,1.619V17.273h20.328V6.9c-.092-1.018-.371-1.342-1.435-1.619V4.54h7.5v.741c-1.065.277-1.343.6-1.436,1.619V33.065c.093,1.018.371,1.342,1.436,1.621v.74h-7.5v-.74c1.064-.279,1.343-.6,1.435-1.621V21.3Z" transform="translate(-52.632 -1.113)" fill="#0d4b77"/>
      <path id="Path_4239" data-name="Path 4239" d="M273.579,27.414l-2.334,5.225c-.417.88-.408.888-.408,1.166,0,.509.371.74,1.342.879v.741H263.87v-.741c1.2-.184,1.575-.556,2.686-2.916l10.975-24.4a3.182,3.182,0,0,0,.417-1.2c0-.464-.279-.7-1.112-.88V4.54H286v.741c-.834.232-1.111.464-1.111.926,0,.278,0,.278.417,1.158l10.56,23.586c1.527,3.38,1.573,3.427,3.24,3.8v.741l-8.547-.063v-.741c.88-.092,1.344-.416,1.344-.972a3.593,3.593,0,0,0-.51-1.389L289.2,27.414Zm7.836-17.354-5.993,13.326h12.021Z" transform="translate(-64.659 -1.113)" fill="#0d4b77"/>
      <path id="Path_4240" data-name="Path 4240" d="M322.879,32.971c.047,1.066.371,1.436,1.436,1.715v.74h-7.507v-.74c1.064-.325,1.343-.6,1.436-1.621V6.9c-.093-1.019-.371-1.3-1.436-1.621V4.54h16.346c5.325,0,7.642.463,9.679,1.99,1.852,1.436,2.916,3.937,2.916,6.993,0,4.538-2.13,7.085-6.9,8.149L345.7,32.6c1.111,1.714,1.3,1.9,2.593,2.084v.74h-8.382v-.74c.833-.14,1.11-.279,1.11-.6,0-.232,0-.232-.787-1.482L333.71,22.183H322.879ZM333.7,18.153c2.594,0,4.4-.278,5.556-.972a4.573,4.573,0,0,0,1.852-3.843,4.546,4.546,0,0,0-1.852-3.8c-1.158-.694-2.913-1-5.553-1l-10.817.025v9.585Z" transform="translate(-77.631 -1.113)" fill="#0d4b77"/>
      <path id="Path_4241" data-name="Path 4241" d="M373.173,33.065c.092,1.018.371,1.342,1.435,1.62v.741H367.1v-.741c1.064-.324,1.343-.6,1.436-1.62V6.9c-.093-1.018-.371-1.3-1.436-1.621V4.54h16.346c4.632,0,7.039.462,9.032,1.758a8.317,8.317,0,0,1,3.564,7.039,8.582,8.582,0,0,1-3.612,7.131c-1.945,1.3-4.352,1.76-8.984,1.76H373.173ZM383.3,18.2c3.24,0,4.584-.184,5.88-.88a4.247,4.247,0,0,0,2.223-3.935,4.248,4.248,0,0,0-2.223-3.936c-1.3-.7-2.547-.88-5.88-.88H373.173V18.2Z" transform="translate(-89.954 -1.113)" fill="#0d4b77"/>
      <path id="Path_4242" data-name="Path 4242" d="M418.055,30.932h19.676c1.064-.092,1.342-.371,1.667-1.436h.7v6.9h-.7c-.278-1.064-.648-1.342-1.667-1.435H411.985V34.22c1.064-.325,1.342-.6,1.435-1.621V6.435c-.094-1.018-.371-1.3-1.435-1.619V4.075H436.85c1.019-.094,1.344-.371,1.622-1.436h.741v6.9h-.741c-.278-1.065-.6-1.39-1.622-1.435h-18.8V17.04h12.452c1.019-.094,1.344-.37,1.621-1.436h.741v6.9h-.741c-.277-1.065-.6-1.343-1.621-1.435H418.055Z" transform="translate(-100.953 -0.647)" fill="#0d4b77"/>
      <rect id="Rectangle_1860" data-name="Rectangle 1860" width="38.758" height="1.276" transform="matrix(0.262, -0.965, 0.965, 0.262, 104.06, 37.408)" fill="#0d4b77"/>
      <path id="Path_4243" data-name="Path 4243" d="M85.169,65.466V58.252h2.358a2.738,2.738,0,0,1,1.767.485,1.75,1.75,0,0,1,.592,1.437,1.465,1.465,0,0,1-.288.895,1.861,1.861,0,0,1-.782.6,1.668,1.668,0,0,1,.923.622,1.781,1.781,0,0,1,.34,1.092,1.931,1.931,0,0,1-.629,1.527,2.6,2.6,0,0,1-1.779.555Zm.951-4.137h1.437a1.5,1.5,0,0,0,1-.313,1.049,1.049,0,0,0,.374-.849,1.032,1.032,0,0,0-.347-.867,1.7,1.7,0,0,0-1.055-.271H86.12Zm0,.763v2.6h1.57a1.509,1.509,0,0,0,1.048-.344,1.208,1.208,0,0,0,.384-.948q0-1.3-1.417-1.3Z" transform="translate(-20.87 -14.274)" fill="#0d4b77"/>
      <path id="Path_4244" data-name="Path 4244" d="M101.255,58.252v4.9a2.3,2.3,0,0,1-.642,1.669,2.585,2.585,0,0,1-1.727.729l-.253.01a2.7,2.7,0,0,1-1.887-.639,2.285,2.285,0,0,1-.713-1.758V58.252h.941v4.885a1.5,1.5,0,0,0,1.659,1.65,1.672,1.672,0,0,0,1.237-.431,1.649,1.649,0,0,0,.428-1.214v-4.89Z" transform="translate(-23.532 -14.274)" fill="#0d4b77"/>
      <rect id="Rectangle_1861" data-name="Rectangle 1861" width="0.951" height="7.214" transform="translate(81.323 43.978)" fill="#0d4b77"/>
      <path id="Path_4245" data-name="Path 4245" d="M114.925,64.688h3.418v.778h-4.375V58.252h.957Z" transform="translate(-27.927 -14.274)" fill="#0d4b77"/>
      <path id="Path_4246" data-name="Path 4246" d="M123.889,65.465V58.252h2.036a3.283,3.283,0,0,1,1.665.416,2.825,2.825,0,0,1,1.117,1.184,3.861,3.861,0,0,1,.4,1.764v.461a3.866,3.866,0,0,1-.394,1.788,2.772,2.772,0,0,1-1.124,1.179,3.484,3.484,0,0,1-1.7.421Zm.951-6.435v5.658h1A2.18,2.18,0,0,0,127.553,64a2.83,2.83,0,0,0,.612-1.949v-.421a2.872,2.872,0,0,0-.577-1.911,2.054,2.054,0,0,0-1.637-.692Z" transform="translate(-30.358 -14.274)" fill="#0d4b77"/>
      <rect id="Rectangle_1862" data-name="Rectangle 1862" width="0.951" height="7.214" transform="translate(102.283 43.978)" fill="#0d4b77"/>
      <path id="Path_4247" data-name="Path 4247" d="M147.277,65.465h-.957l-3.631-5.559v5.559h-.956V58.252h.956l3.642,5.584V58.252h.946Z" transform="translate(-34.73 -14.274)" fill="#0d4b77"/>
      <path id="Path_4248" data-name="Path 4248" d="M159.252,64.487a2.2,2.2,0,0,1-1.023.785,4.13,4.13,0,0,1-1.529.26,2.967,2.967,0,0,1-1.566-.414,2.755,2.755,0,0,1-1.057-1.177,4.058,4.058,0,0,1-.384-1.768v-.63a3.793,3.793,0,0,1,.761-2.527,2.65,2.65,0,0,1,2.137-.9,2.739,2.739,0,0,1,1.818.577,2.517,2.517,0,0,1,.842,1.637H158.3a1.573,1.573,0,0,0-1.7-1.437,1.684,1.684,0,0,0-1.449.672,3.279,3.279,0,0,0-.5,1.946v.59a3.068,3.068,0,0,0,.556,1.931,1.8,1.8,0,0,0,1.5.716,3.308,3.308,0,0,0,.936-.119,1.451,1.451,0,0,0,.664-.4V62.619h-1.67v-.778h2.616Z" transform="translate(-37.661 -14.242)" fill="#0d4b77"/>
      <path id="Path_4249" data-name="Path 4249" d="M175.936,62.131h-3.126v2.556h3.631v.778h-4.583V58.252h4.534v.778h-3.582v2.324h3.126Z" transform="translate(-42.112 -14.274)" fill="#0d4b77"/>
      <path id="Path_4250" data-name="Path 4250" d="M187.728,65.465h-.957l-3.631-5.559v5.559h-.956V58.252h.956l3.642,5.584V58.252h.946Z" transform="translate(-44.643 -14.274)" fill="#0d4b77"/>
      <path id="Path_4251" data-name="Path 4251" d="M196.614,64.2l2.061-5.95h1.04l-2.676,7.213H196.2l-2.67-7.213h1.035Z" transform="translate(-47.422 -14.274)" fill="#0d4b77"/>
      <path id="Path_4252" data-name="Path 4252" d="M209.768,62.131h-3.126v2.556h3.631v.778h-4.583V58.252h4.534v.778h-3.582v2.324h3.126Z" transform="translate(-50.403 -14.274)" fill="#0d4b77"/>
      <path id="Path_4253" data-name="Path 4253" d="M216.973,64.688h3.418v.778h-4.375V58.252h.957Z" transform="translate(-52.933 -14.274)" fill="#0d4b77"/>
      <path id="Path_4254" data-name="Path 4254" d="M230.977,62.06a4.457,4.457,0,0,1-.356,1.85,2.7,2.7,0,0,1-1.011,1.207,2.782,2.782,0,0,1-1.526.416,2.692,2.692,0,0,1-2.534-1.613,4.28,4.28,0,0,1-.374-1.8V61.6a4.416,4.416,0,0,1,.362-1.838,2.675,2.675,0,0,1,2.537-1.644,2.794,2.794,0,0,1,1.529.418,2.7,2.7,0,0,1,1.018,1.214,4.483,4.483,0,0,1,.356,1.85Zm-.946-.466a3.241,3.241,0,0,0-.515-1.97,1.7,1.7,0,0,0-1.442-.686,1.683,1.683,0,0,0-1.419.686,3.168,3.168,0,0,0-.532,1.906v.53a3.238,3.238,0,0,0,.522,1.955,1.832,1.832,0,0,0,2.866.039,3.222,3.222,0,0,0,.52-1.925Z" transform="translate(-55.177 -14.242)" fill="#0d4b77"/>
      <path id="Path_4255" data-name="Path 4255" d="M238.389,62.641v2.824h-.951V58.252H240.1a2.672,2.672,0,0,1,1.855.6,2.047,2.047,0,0,1,.671,1.6,2.022,2.022,0,0,1-.656,1.618,2.793,2.793,0,0,1-1.881.567Zm0-.778H240.1a1.709,1.709,0,0,0,1.169-.36,1.316,1.316,0,0,0,.406-1.04,1.361,1.361,0,0,0-.406-1.032,1.6,1.6,0,0,0-1.115-.4h-1.764Z" transform="translate(-58.182 -14.274)" fill="#0d4b77"/>
      <path id="Path_4256" data-name="Path 4256" d="M252.681,62.131h-3.126v2.556h3.631v.778H248.6V58.252h4.534v.778h-3.582v2.324h3.126Z" transform="translate(-60.918 -14.274)" fill="#0d4b77"/>
      <path id="Path_4257" data-name="Path 4257" d="M266.927,62.218a4.47,4.47,0,0,1-1.781-.864,1.651,1.651,0,0,1-.558-1.266,1.745,1.745,0,0,1,.682-1.41,2.707,2.707,0,0,1,1.771-.557,2.951,2.951,0,0,1,1.325.288,2.186,2.186,0,0,1,.9.792,2.029,2.029,0,0,1,.319,1.105h-.957a1.315,1.315,0,0,0-.416-1.031,1.691,1.691,0,0,0-1.174-.375,1.733,1.733,0,0,0-1.1.31,1.036,1.036,0,0,0-.393.861.93.93,0,0,0,.374.747,3.664,3.664,0,0,0,1.273.559,5.9,5.9,0,0,1,1.407.558,2.145,2.145,0,0,1,.753.71,1.819,1.819,0,0,1,.245.957,1.684,1.684,0,0,1-.683,1.4,2.916,2.916,0,0,1-1.828.528,3.4,3.4,0,0,1-1.387-.285,2.337,2.337,0,0,1-.993-.781,1.905,1.905,0,0,1-.349-1.124h.956a1.244,1.244,0,0,0,.483,1.033,2.037,2.037,0,0,0,1.29.379,1.874,1.874,0,0,0,1.155-.307,1,1,0,0,0,.4-.837.979.979,0,0,0-.371-.82,4.291,4.291,0,0,0-1.348-.572" transform="translate(-64.779 -14.242)" fill="#0d4b77"/>
      <path id="Path_4258" data-name="Path 4258" d="M276.557,62.641v2.824h-.951V58.252h2.66a2.672,2.672,0,0,1,1.855.6,2.047,2.047,0,0,1,.671,1.6,2.022,2.022,0,0,1-.656,1.618,2.793,2.793,0,0,1-1.881.567Zm0-.778h1.709a1.709,1.709,0,0,0,1.169-.36,1.316,1.316,0,0,0,.406-1.04,1.361,1.361,0,0,0-.406-1.032,1.6,1.6,0,0,0-1.115-.4h-1.764Z" transform="translate(-67.535 -14.274)" fill="#0d4b77"/>
      <path id="Path_4259" data-name="Path 4259" d="M290.85,62.131h-3.126v2.556h3.631v.778h-4.583V58.252h4.534v.778h-3.582v2.324h3.126Z" transform="translate(-70.271 -14.274)" fill="#0d4b77"/>
      <path id="Path_4260" data-name="Path 4260" d="M302.324,63.145a2.65,2.65,0,0,1-.845,1.766,2.766,2.766,0,0,1-1.89.622,2.542,2.542,0,0,1-2.048-.917,3.688,3.688,0,0,1-.77-2.452V61.47a4.1,4.1,0,0,1,.359-1.769,2.684,2.684,0,0,1,1.018-1.172,2.835,2.835,0,0,1,1.526-.408,2.6,2.6,0,0,1,1.843.642,2.687,2.687,0,0,1,.808,1.776h-.957a2.067,2.067,0,0,0-.538-1.252,1.622,1.622,0,0,0-1.157-.388,1.7,1.7,0,0,0-1.429.675,3.094,3.094,0,0,0-.518,1.918v.7a3.181,3.181,0,0,0,.491,1.869,1.585,1.585,0,0,0,1.372.695,1.832,1.832,0,0,0,1.217-.359,1.99,1.99,0,0,0,.562-1.251Z" transform="translate(-72.721 -14.242)" fill="#0d4b77"/>
      <rect id="Rectangle_1863" data-name="Rectangle 1863" width="0.951" height="7.214" transform="translate(232.999 43.978)" fill="#0d4b77"/>
      <path id="Path_4261" data-name="Path 4261" d="M318.633,63.578H315.61l-.679,1.887h-.981l2.755-7.213h.832l2.759,7.213h-.975ZM315.9,62.8h2.452l-1.228-3.374Z" transform="translate(-76.931 -14.274)" fill="#0d4b77"/>
      <path id="Path_4262" data-name="Path 4262" d="M327.287,64.688h3.418v.778h-4.375V58.252h.957Z" transform="translate(-79.965 -14.274)" fill="#0d4b77"/>
      <rect id="Rectangle_1864" data-name="Rectangle 1864" width="0.951" height="7.214" transform="translate(253.925 43.978)" fill="#0d4b77"/>
      <path id="Path_4263" data-name="Path 4263" d="M344.576,62.218a4.471,4.471,0,0,1-1.781-.864,1.651,1.651,0,0,1-.558-1.266,1.745,1.745,0,0,1,.682-1.41,2.706,2.706,0,0,1,1.771-.557,2.952,2.952,0,0,1,1.325.288,2.186,2.186,0,0,1,.9.792,2.03,2.03,0,0,1,.319,1.105h-.957a1.316,1.316,0,0,0-.416-1.031,1.691,1.691,0,0,0-1.174-.375,1.732,1.732,0,0,0-1.1.31,1.036,1.036,0,0,0-.393.861.93.93,0,0,0,.374.747,3.664,3.664,0,0,0,1.273.559,5.9,5.9,0,0,1,1.407.558,2.146,2.146,0,0,1,.753.71,1.819,1.819,0,0,1,.245.957,1.684,1.684,0,0,1-.683,1.4,2.916,2.916,0,0,1-1.828.528,3.4,3.4,0,0,1-1.387-.285,2.337,2.337,0,0,1-.994-.781,1.905,1.905,0,0,1-.349-1.124h.956a1.244,1.244,0,0,0,.483,1.033,2.037,2.037,0,0,0,1.29.379,1.874,1.874,0,0,0,1.155-.307,1,1,0,0,0,.4-.837.98.98,0,0,0-.371-.82,4.292,4.292,0,0,0-1.348-.572" transform="translate(-83.807 -14.242)" fill="#0d4b77"/>
      <path id="Path_4264" data-name="Path 4264" d="M358.046,59.03h-2.318v6.435h-.946V59.03h-2.314v-.778h5.578Z" transform="translate(-86.369 -14.274)" fill="#0d4b77"/>
      <path id="Path_4265" data-name="Path 4265" d="M365.839,62.218a4.472,4.472,0,0,1-1.78-.864,1.651,1.651,0,0,1-.558-1.266,1.745,1.745,0,0,1,.682-1.41,2.7,2.7,0,0,1,1.77-.557,2.947,2.947,0,0,1,1.325.288,2.182,2.182,0,0,1,.9.792,2.03,2.03,0,0,1,.319,1.105h-.956a1.316,1.316,0,0,0-.417-1.031,1.69,1.69,0,0,0-1.174-.375,1.732,1.732,0,0,0-1.1.31,1.035,1.035,0,0,0-.394.861.929.929,0,0,0,.374.747,3.664,3.664,0,0,0,1.273.559,5.9,5.9,0,0,1,1.407.558,2.136,2.136,0,0,1,.753.71,1.812,1.812,0,0,1,.245.957,1.686,1.686,0,0,1-.683,1.4,2.917,2.917,0,0,1-1.828.528,3.394,3.394,0,0,1-1.387-.285,2.333,2.333,0,0,1-.994-.781,1.9,1.9,0,0,1-.35-1.124h.957a1.242,1.242,0,0,0,.483,1.033,2.035,2.035,0,0,0,1.29.379,1.87,1.87,0,0,0,1.154-.307,1,1,0,0,0,.4-.837.98.98,0,0,0-.371-.82,4.292,4.292,0,0,0-1.348-.572" transform="translate(-89.017 -14.242)" fill="#0d4b77"/>
      <path id="Path_4266" data-name="Path 4266" d="M0,3.8V52.164H40.593V44.391h7.773V3.8ZM38.865,50.436H2.949l6.046-6.046H38.865Zm0-31.092H15.546v9.5H31.092V34.89H9.5V13.3H38.865ZM32.82,36.618v-9.5H17.273V21.071H38.865V42.663H9.5V36.618Zm13.819,6.046H40.593V11.571H7.773v31.6L1.727,49.215V5.525H46.638Z" transform="translate(0 -0.931)" fill="#58758e"/>
    </g>
  </g>
</svg>
